<svg xmlns="http://www.w3.org/2000/svg" width="32" height="32" viewBox="0 0 32 32">
  <defs>
    <linearGradient id="gradient" x1="0%" y1="0%" x2="100%" y2="100%">
      <stop offset="0%" style="stop-color:#10B981;stop-opacity:1" />
      <stop offset="100%" style="stop-color:#06B6D4;stop-opacity:1" />
    </linearGradient>
  </defs>
  <rect width="32" height="32" rx="8" fill="url(#gradient)"/>
  <path d="M16 8c-1.1 0-2 .9-2 2v2c0 .6-.4 1-1 1s-1-.4-1-1v-2c0-2.2 1.8-4 4-4s4 1.8 4 4c0 1.3-.6 2.4-1.5 3.1L16 15.6l-2.5-2.5C12.6 12.4 12 11.3 12 10c0-.6.4-1 1-1s1 .4 1 1c0 .3.1.5.3.7L16 12.4l1.7-1.7c.2-.2.3-.4.3-.7 0-.6.4-1 1-1s1 .4 1 1c0 1.3-.6 2.4-1.5 3.1L16 15.6z" fill="white"/>
  <circle cx="16" cy="20" r="3" fill="white" opacity="0.8"/>
</svg>